<svg xmlns="http://www.w3.org/2000/svg" viewBox="0 0 357.99 133.77"><defs><style>.cls-1{fill:#0b3038;}.cls-2{fill:#009247;}.cls-3{fill:#0db14b;}.cls-4{fill:#72bf44;}.cls-5{fill:#a6ce39;}.cls-6{fill:#00aaa6;}.cls-7{fill:#c6d92d;}</style></defs><g id="Layer_2" data-name="Layer 2"><g id="Layer_1-2" data-name="Layer 1"><path class="cls-1" d="M22.76,116.17H8.12l-2.4,5.28H0l12.56-28h5.76l12.56,28H25.12ZM15.44,99.33l-5.2,11.92h10.4Z"/><path class="cls-1" d="M48.8,99.73l3.6,2.72-2.2,2.8a8.41,8.41,0,0,1,2.08,5.84c0,2.44-.92,5.88-4.16,7.36A6.63,6.63,0,0,1,52.2,125c0,5.44-4.16,8.8-9.88,8.8s-10-3.48-10-8.8h4.84c0,2.56,2.36,4.24,5.16,4.24s5-1.52,5-4.24-2.56-4-5-4c-6.16,0-10-3.76-10-9.92a9.62,9.62,0,0,1,10-10,7.86,7.86,0,0,1,4.52,1.12ZM37.16,111.09c0,3.44,2.32,5.48,5.16,5.48s5.12-2.08,5.12-5.48-2.32-5.56-5.12-5.56S37.16,107.65,37.16,111.09Z"/><path class="cls-1" d="M59.56,113.33c.32,2.44,2.44,4.2,5.88,4.2a8.14,8.14,0,0,0,5.28-1.84l3.12,3.08a12.11,12.11,0,0,1-8.48,3.2c-6.8,0-10.84-4.2-10.84-10.52,0-6,4.08-10.32,10.48-10.32,6.6,0,10.71,4.08,10,12.2Zm10.72-4c-.32-2.56-2.32-3.84-5.12-3.84-2.64,0-4.8,1.28-5.52,3.84Z"/><path class="cls-1" d="M93.24,121.45V111.13c0-3-1.64-5.28-4.76-5.28s-5,2.52-5,5.52v10.08H78.6V101.69H83l.32,2.68a8.89,8.89,0,0,1,6.48-3c4.64,0,8.36,3.48,8.36,9.68v10.36Z"/><path class="cls-1" d="M119.24,118.93a10.15,10.15,0,0,1-7.6,3.12c-5.72,0-10.48-3.44-10.48-10.44s4.76-10.44,10.48-10.44a9.37,9.37,0,0,1,7.12,2.92l-3.08,3.24a6,6,0,0,0-4-1.56,5.55,5.55,0,0,0-5.68,5.84,5.37,5.37,0,0,0,5.6,5.76,5.93,5.93,0,0,0,4.32-1.64Z"/><path class="cls-1" d="M141.27,101.73l-12,28h-5.36l3.68-8.56-7.88-19.4h5.68l3,8.52,1.88,5.56,2-5.44,3.6-8.64Z"/><path class="cls-1" d="M176.91,107.21c.12,7.08-4.2,14.24-14,14.24h-11v-28h11C172.51,93.45,176.79,100.29,176.91,107.21Zm-19.75,9.16h5.76c6.35,0,8.87-4.64,8.75-9.2-.12-4.36-2.68-8.72-8.75-8.72h-5.76Z"/><path class="cls-1" d="M196.07,101.73h4.68v19.72h-4.6l-.24-2.88c-1.12,2.32-4.2,3.44-6.4,3.48-5.83,0-10.15-3.56-10.15-10.48s4.52-10.36,10.27-10.32a7.24,7.24,0,0,1,6.28,3.2Zm-11.83,9.84a5.65,5.65,0,0,0,5.84,6c7.67,0,7.67-12,0-12A5.62,5.62,0,0,0,184.24,111.57Z"/><path class="cls-1" d="M217.75,107a6.64,6.64,0,0,0-4.87-1.76c-2.33,0-3.6.72-3.6,2s1.16,2,3.68,2.16c3.71.24,8.43,1.08,8.43,6.32,0,3.48-2.84,6.48-8.47,6.48-3.13,0-6.24-.52-9.12-3.52l2.4-3.48c1.4,1.56,4.59,2.72,6.8,2.76,1.83,0,3.55-.92,3.55-2.36s-1.12-1.92-3.92-2.08c-3.71-.28-8.15-1.64-8.15-6.12s4.72-6.16,8.31-6.16a10.59,10.59,0,0,1,7.68,2.6Z"/><path class="cls-1" d="M229.39,93.45v11a7.28,7.28,0,0,1,6.16-3c5.6,0,8.08,3.8,8.08,9.6v10.4h-4.88V111.09c0-3.6-1.88-5.12-4.48-5.12-2.88,0-4.88,2.44-4.88,5.4v10.08h-4.87v-28Z"/><path class="cls-1" d="M252.63,93.49v10.92c1.16-2,4.4-3.16,6.48-3.16,5.76,0,10,3.52,10,10.32,0,6.48-4.36,10.32-10.16,10.32a7.19,7.19,0,0,1-6.36-3.16l-.31,2.72h-4.56v-28Zm.33,18.08a5.66,5.66,0,1,0,11.31,0,5.44,5.44,0,0,0-5.6-5.76A5.62,5.62,0,0,0,253,111.57Z"/><path class="cls-1" d="M292.35,111.61c0,5.68-3.88,10.28-10.28,10.28s-10.23-4.6-10.23-10.28,3.92-10.28,10.19-10.28A10,10,0,0,1,292.35,111.61Zm-15.64,0c0,3,1.8,5.8,5.36,5.8s5.36-2.8,5.36-5.8-2.08-5.84-5.36-5.84C278.55,105.77,276.71,108.65,276.71,111.61Z"/><path class="cls-1" d="M311.35,101.73H316v19.72h-4.6l-.24-2.88c-1.12,2.32-4.2,3.44-6.4,3.48-5.84,0-10.16-3.56-10.16-10.48s4.52-10.36,10.28-10.32a7.24,7.24,0,0,1,6.28,3.2Zm-11.84,9.84a5.65,5.65,0,0,0,5.84,6c7.68,0,7.68-12,0-12A5.62,5.62,0,0,0,299.51,111.57Z"/><path class="cls-1" d="M324.67,101.73,325,104c1.52-2.44,3.56-2.8,5.56-2.8a7.48,7.48,0,0,1,5.08,1.88l-2.2,4.24a4.88,4.88,0,0,0-3.52-1.28c-2.56,0-4.92,1.36-4.92,5v10.4h-4.87V101.73Z"/><path class="cls-1" d="M358,93.49v28h-4.56l-.32-2.72a7.18,7.18,0,0,1-6.36,3.16c-5.8,0-10.16-3.84-10.16-10.32,0-6.8,4.28-10.32,10-10.32,2.08,0,5.32,1.12,6.48,3.16V93.49Zm-16.52,18.08a5.66,5.66,0,1,0,11.32,0,5.63,5.63,0,0,0-5.72-5.76A5.44,5.44,0,0,0,341.47,111.57Z"/><path class="cls-2" d="M160.65,66.52A30.51,30.51,0,0,1,148.4,42.05h12.25Z"/><path class="cls-3" d="M172.87,72a30.32,30.32,0,0,1-12.22-5.51V50.87h12.22Z"/><path class="cls-4" d="M185.12,72a31.56,31.56,0,0,1-12.25,0V27.88h12.25Z"/><path class="cls-5" d="M197.37,66.52A30.2,30.2,0,0,1,185.12,72V35.69h12.25Z"/><path class="cls-6" d="M188.31,2.56a40.56,40.56,0,1,0-10.19,80A40.54,40.54,0,0,0,219.1,36a3.34,3.34,0,0,0-6.64.49h0a34.4,34.4,0,0,1,.47,5.6A33.89,33.89,0,0,1,194.72,72.1l-.21.17v-.06A33.91,33.91,0,1,1,186.81,9"/><path class="cls-7" d="M197.34,15.5v27h0v24a30.54,30.54,0,0,0,12.21-24h0v-27Z"/><polygon class="cls-7" points="197.34 15.5 194.68 15.5 203.12 3.37 211.93 15.5 197.34 15.5"/><polygon class="cls-6" points="185.6 1.7 185.6 0 193.36 5.4 185.6 11.04 185.6 1.7"/></g></g></svg>