<svg xmlns="http://www.w3.org/2000/svg" viewBox="0 0 478.61 72.7"><defs><style>.cls-1{fill:#0b3038;}.cls-2{fill:#009247;}.cls-3{fill:#0db14b;}.cls-4{fill:#72bf44;}.cls-5{fill:#a6ce39;}.cls-6{fill:#00aaa6;}.cls-7{fill:#c6d92d;}</style></defs><g id="Layer_2" data-name="Layer 2"><g id="Layer_1-2" data-name="Layer 1"><path class="cls-1" d="M111,42.45H94.89l-2.63,5.79H86L99.76,17.53h6.32l13.77,30.71h-6.32Zm-8-18.47-5.7,13.07h11.4Z"/><path class="cls-1" d="M139.51,24.42l3.94,3L141,30.47a9.22,9.22,0,0,1,2.28,6.41c0,2.67-1,6.45-4.56,8.07a7.27,7.27,0,0,1,4.47,7.15c0,6-4.56,9.65-10.83,9.65s-11-3.82-11-9.65h5.31c0,2.81,2.59,4.65,5.66,4.65s5.48-1.67,5.48-4.65-2.81-4.34-5.48-4.34c-6.76,0-11-4.13-11-10.88s4.91-11,11-11a8.64,8.64,0,0,1,5,1.23ZM126.74,36.88c0,3.77,2.54,6,5.66,6s5.61-2.28,5.61-6-2.54-6.1-5.61-6.1S126.74,33.11,126.74,36.88Z"/><path class="cls-1" d="M151.31,39.33c.35,2.68,2.67,4.61,6.44,4.61,2,0,4.57-.75,5.79-2L167,45.3c-2.28,2.37-6,3.51-9.3,3.51-7.46,0-11.89-4.61-11.89-11.54,0-6.58,4.47-11.32,11.49-11.32,7.24,0,11.76,4.48,10.92,13.38Zm11.75-4.43c-.35-2.8-2.54-4.21-5.61-4.21-2.9,0-5.27,1.41-6.06,4.21Z"/><path class="cls-1" d="M188.24,48.24V36.92c0-3.29-1.8-5.79-5.22-5.79s-5.52,2.76-5.52,6.05V48.24h-5.31V26.57H177l.35,2.94a9.76,9.76,0,0,1,7.11-3.25c5.09,0,9.17,3.82,9.17,10.62V48.24Z"/><path class="cls-1" d="M216.76,45.48a11.15,11.15,0,0,1-8.34,3.42c-6.27,0-11.49-3.77-11.49-11.45S202.15,26,208.42,26a10.29,10.29,0,0,1,7.81,3.2l-3.38,3.55A6.56,6.56,0,0,0,208.51,31a6.09,6.09,0,0,0-6.23,6.41,5.9,5.9,0,0,0,6.14,6.32,6.53,6.53,0,0,0,4.74-1.8Z"/><path class="cls-1" d="M240.93,26.61l-13.2,30.67h-5.88l4-9.39-8.64-21.28h6.23L226.76,36l2.06,6.09,2.24-6L235,26.61Z"/><path class="cls-1" d="M280,32.62c.13,7.77-4.61,15.62-15.36,15.62H252.6V17.53h12.06C275.19,17.53,279.88,25,280,32.62ZM258.35,42.67h6.31c7,0,9.74-5.09,9.61-10.09-.13-4.78-2.94-9.56-9.61-9.56h-6.31Z"/><path class="cls-1" d="M301,26.61h5.13V48.24h-5l-.27-3.16c-1.22,2.55-4.6,3.77-7,3.82-6.4,0-11.14-3.91-11.14-11.5S287.65,26,294,26.09c2.89,0,5.66,1.36,6.88,3.51ZM288,37.4A6.2,6.2,0,0,0,294.45,44c8.42,0,8.42-13.11,0-13.11A6.16,6.16,0,0,0,288,37.4Z"/><path class="cls-1" d="M324.81,32.36a7.3,7.3,0,0,0-5.36-1.93c-2.54,0-3.94.79-3.94,2.15s1.27,2.19,4,2.37c4.08.26,9.26,1.18,9.26,6.93,0,3.82-3.12,7.11-9.3,7.11-3.42,0-6.85-.57-10-3.86l2.63-3.82c1.53,1.71,5,3,7.46,3,2,0,3.9-1,3.9-2.59s-1.23-2.11-4.3-2.28c-4.08-.31-8.95-1.8-8.95-6.72S315.42,26,319.37,26c3.37,0,5.92.66,8.42,2.85Z"/><path class="cls-1" d="M337.57,17.53v12a8,8,0,0,1,6.76-3.24c6.14,0,8.86,4.16,8.86,10.52V48.24h-5.35V36.88c0-4-2.06-5.62-4.92-5.62-3.15,0-5.35,2.68-5.35,5.92V48.24h-5.35V17.53Z"/><path class="cls-1" d="M363.06,17.58v12c1.27-2.24,4.83-3.46,7.11-3.46,6.31,0,11,3.86,11,11.31,0,7.11-4.78,11.32-11.14,11.32a7.89,7.89,0,0,1-7-3.46l-.35,3h-5V17.58Zm.35,19.82a6.21,6.21,0,1,0,12.42,0,6,6,0,0,0-6.14-6.31A6.17,6.17,0,0,0,363.41,37.4Z"/><path class="cls-1" d="M406.62,37.45c0,6.23-4.25,11.27-11.27,11.27s-11.23-5-11.23-11.27,4.3-11.28,11.19-11.28A10.93,10.93,0,0,1,406.62,37.45Zm-17.15,0c0,3.29,2,6.36,5.88,6.36s5.88-3.07,5.88-6.36S399,31,395.35,31C391.49,31,389.47,34.2,389.47,37.45Z"/><path class="cls-1" d="M427.46,26.61h5.13V48.24h-5l-.27-3.16c-1.22,2.55-4.6,3.77-7,3.82-6.41,0-11.15-3.91-11.15-11.5s5-11.36,11.28-11.31c2.89,0,5.66,1.36,6.88,3.51Zm-13,10.79A6.2,6.2,0,0,0,420.88,44c8.42,0,8.42-13.11,0-13.11A6.16,6.16,0,0,0,414.47,37.4Z"/><path class="cls-1" d="M442.07,26.61l.39,2.5c1.67-2.67,3.91-3.07,6.1-3.07a8.21,8.21,0,0,1,5.57,2.06l-2.41,4.65a5.36,5.36,0,0,0-3.86-1.4c-2.81,0-5.4,1.49-5.4,5.48V48.24h-5.35V26.61Z"/><path class="cls-1" d="M478.61,17.58V48.24h-5l-.35-3a7.89,7.89,0,0,1-7,3.46c-6.36,0-11.14-4.21-11.14-11.32,0-7.45,4.7-11.31,11-11.31,2.28,0,5.84,1.22,7.11,3.46v-12ZM460.49,37.4a6.21,6.21,0,1,0,12.42,0,6.17,6.17,0,0,0-6.27-6.31A6,6,0,0,0,460.49,37.4Z"/><path class="cls-2" d="M19.56,58.56A26.86,26.86,0,0,1,8.77,37H19.56Z"/><path class="cls-3" d="M30.32,63.41a26.87,26.87,0,0,1-10.76-4.85V44.78H30.32Z"/><path class="cls-4" d="M41.1,63.41a28.19,28.19,0,0,1-10.78,0V24.55H41.1Z"/><path class="cls-5" d="M51.89,58.56A26.94,26.94,0,0,1,41.1,63.41v-32H51.89Z"/><path class="cls-6" d="M43.91,2.25A35.71,35.71,0,1,0,71.41,37a35,35,0,0,0-.4-5.36,2.94,2.94,0,0,0-5.84.43h0A30.75,30.75,0,0,1,65.58,37a29.84,29.84,0,0,1-16,26.45l-.19.15v0A29.86,29.86,0,1,1,42.58,7.94"/><path class="cls-7" d="M51.86,13.64v23.8h0V58.56A26.92,26.92,0,0,0,62.63,37.44h0V13.64Z"/><polygon class="cls-7" points="51.86 13.64 49.51 13.64 56.94 2.97 64.69 13.64 51.86 13.64"/><polygon class="cls-6" points="41.52 1.5 41.52 0 48.35 4.75 41.52 9.72 41.52 1.5"/></g></g></svg>