<svg xmlns="http://www.w3.org/2000/svg" viewBox="0 0 384 384"><defs><style>.cls-1{fill:#00c0ff;}</style></defs><g id="Layer_2" data-name="Layer 2"><g id="Layer_1-2" data-name="Layer 1"><path class="cls-1" d="M0,330.75V21C1.93,15.46,4.25,10.21,8.86,6.21,12.43,3.11,16.79,1.75,21,0H363c3.37,1.49,7,2.41,10.05,4.59,6,4.25,9.18,10.24,10.95,17.16v309c-5.1,17.24-16.75,21.59-31.54,21.34-30.47-.51-60.94-.14-91.42-.18-2.21,0-3.89.35-5.48,2.26a82,82,0,0,1-39.67,26.31c-5.38,1.67-11,2.16-16.39,3.52h-15a20.28,20.28,0,0,0-2.49-.65,81.52,81.52,0,0,1-52.59-28.05,9,9,0,0,0-7.59-3.43q-47.58.17-95.16.05c-13.36,0-22.5-7.13-26-19.88A6.83,6.83,0,0,0,0,330.75ZM192.19,89.58q-87.55,0-175.1,0c-2.08,0-4.39-.84-4.39,3q.15,116.61.1,233.21c0,7.91,5.28,13.25,13.15,13.26,29.62.07,59.24,0,88.86.09,3.4,0,2.92-1.1,1.84-3.37a76,76,0,0,1-7.78-32.91c0-32.67,14.09-57.55,42.18-74.42,1-.61,2.61-.82,2.55-2.41-.18-4.39.62-8.7-1.95-13-17.78-29.81-35.31-59.77-52.89-89.7-6.45-11-.81-20.85,11.95-20.93,8.13-.05,16.25.15,24.37-.06,6.41-.17,10.82,2.38,14.17,7.88,13.36,22,26.93,43.84,40.43,65.73,2.32,3.78,2.33,3.78,4.63.05q20.53-33.33,41.06-66.67c2.53-4.12,5.94-6.8,10.88-6.85,9.87-.09,19.74-.06,29.62,0a11.75,11.75,0,0,1,9.36,4.77c3.66,4.62,3.67,9.83,0,16-17.15,29.18-34.24,58.38-51.53,87.46-2.39,4-3.78,7.94-3.48,12.64.15,2.47.7,3.95,3,5.27,37.68,21.73,52.32,67.32,34.25,106.77-1.57,3.41-.85,3.73,2.44,3.72,28.75-.09,57.49-.05,86.24-.06,10.34,0,15.05-4.75,15.05-15.16q0-114.93.11-229.84c0-4-1.17-4.64-4.79-4.63Q279.36,89.67,192.19,89.58Zm-.37-12.83q87.15,0,174.31,0c6,0,5.06.61,5.08-5.24q.06-21.93,0-43.86c0-9.81-5-14.86-14.67-14.86H27.43c-9.57,0-14.64,5-14.65,14.5q0,22.3,0,44.61c0,5.3-.8,4.85,4.73,4.85Zm.23,294.47A70.44,70.44,0,1,0,121.57,301,70.66,70.66,0,0,0,192.05,371.22Zm0-172.78c-6.24,0-12.49-.09-18.73,0-4.15.08-6.67,2.23-6.81,5.93-.2,5,0,10-.11,15,0,1.83.69,2.1,2.27,1.63a80.67,80.67,0,0,1,46.48,0c1.87.55,2.45.08,2.41-1.82-.08-4.37,0-8.74,0-13.11-.05-5.3-2.19-7.52-7.5-7.59C204.06,198.36,198.06,198.43,192.07,198.44ZM180.56,185.7c-1.78-2.92-3-5-4.34-7.11-2.53-4-4.26-9.49-7.9-11.51s-9.23-.6-14-.63c-4.9,0-9.81,0-15.4,0l17.12,29.08C161.75,186.09,170.5,185,180.56,185.7ZM245,166.45H217.17c-.87,0-1.8-.1-2.35.79-3.65,5.89-7.29,11.79-11,17.84,2.43.82,4.44.45,6.4.48a20.77,20.77,0,0,1,14.06,5.2c1.41,1.26,2.16,4.23,4,3.64,1.44-.45,2.2-3.12,3.22-4.83Zm-21.86-12.79c6.72,0,12.68-.72,18.4.16,8.88,1.37,14-2.2,16.91-10.17a1.29,1.29,0,0,1,.19-.32c1.34-1.89.74-2.51-1.45-2.49-8.1.06-16.2,0-24.29,0a2.6,2.6,0,0,0-2.59,1.09C228.09,145.64,225.83,149.32,223.17,153.66Zm-62.32,0c-2.67-4.34-4.92-8-7.19-11.7a2,2,0,0,0-1.84-1.07H126c-1.38,0-1.82.49-1,1.8q3,5,5.86,10c.61,1.07,1.6,1,2.6,1Zm78-25.59h18c11.43,0,11.37,0,16.83-10.17,1.29-2.41.44-2.67-1.71-2.66-7.6.06-15.2,0-22.8,0-1.44,0-2.6.16-3.44,1.62C243.7,120.4,241.48,123.84,238.88,128.06Zm-93.8,0c-2.61-4.24-4.78-7.71-6.88-11.23a2.84,2.84,0,0,0-2.71-1.57q-12.14,0-24.28,0c-1.53,0-2.1.48-1.18,2,1.93,3.2,3.79,6.44,5.67,9.66a2.27,2.27,0,0,0,2.16,1.15C126.66,128,135.46,128.05,145.08,128.05Z"/><path class="cls-1" d="M307.09,63.94c-10.25,0-20.5,0-30.75,0-11.72-.06-20.24-8-20.37-19s8.64-19.37,20.41-19.39c20.87,0,41.75-.09,62.62,0a19.2,19.2,0,0,1,19.34,17.33c1,9.06-5.09,17.84-14.18,20.39a24.8,24.8,0,0,1-6.7.61Q322.28,64,307.09,63.94Zm0-12.8h30.36c1.61,0,3.26.15,4.74-.77,2.59-1.63,3.91-3.92,3.14-7-.93-3.74-3.7-5.06-7.33-5.06q-30.75,0-61.48,0c-4.76,0-7.67,2.48-7.72,6.34s2.88,6.41,7.92,6.43C286.88,51.16,297,51.14,307.12,51.14Z"/><path class="cls-1" d="M96.11,63.91a19.17,19.17,0,1,1,19.1-19A19.17,19.17,0,0,1,96.11,63.91Zm6.21-19.21a6.32,6.32,0,1,0-12.64.35,6.32,6.32,0,0,0,12.64-.35Z"/><path class="cls-1" d="M44.89,63.91A19.16,19.16,0,0,1,25.57,44.7,19.38,19.38,0,0,1,44.69,25.57,19.14,19.14,0,0,1,63.91,44.88,18.93,18.93,0,0,1,44.89,63.91ZM51.1,44.7a6.39,6.39,0,0,0-6.49-6.31,6.6,6.6,0,0,0-6.22,6.3,6.38,6.38,0,0,0,6.4,6.4A6.16,6.16,0,0,0,51.1,44.7Z"/><path class="cls-1" d="M147.33,63.91A18.94,18.94,0,0,1,128.09,45.1a19.13,19.13,0,0,1,19-19.53,19.37,19.37,0,0,1,19.34,19.28A19.14,19.14,0,0,1,147.33,63.91Zm6.26-18.66a6.59,6.59,0,0,0-6-6.85,6.37,6.37,0,0,0-6.64,5.74,6.17,6.17,0,0,0,5.72,6.93A6.41,6.41,0,0,0,153.59,45.25Z"/><path class="cls-1" d="M155.85,337.41c.85-5.15,1.82-11.57,3-18a6.16,6.16,0,0,0-1.93-6.31c-4.08-3.85-7.86-8-11.82-12s-5.32-8.46-3.59-13.7,5.43-7.88,10.72-8.67c5.56-.84,11.08-1.91,16.65-2.55a4.54,4.54,0,0,0,4.08-3.13c2.29-5.12,4.72-10.18,7.09-15.27s6.17-8.11,11.94-8.11,9.57,3,12,8.1,4.82,10.14,7.13,15.26a4.52,4.52,0,0,0,4.07,3.11c5.83.67,11.63,1.63,17.38,2.74,10.34,2,14.17,13.47,7.09,21.35-4,4.46-8.2,8.76-12.53,12.9a6.21,6.21,0,0,0-1.9,6.32c1.12,6.14,2.33,12.28,2.94,18.48.84,8.61-6.05,14.94-14.53,13.81a15.11,15.11,0,0,1-5.22-2l-12.43-6.91a7.5,7.5,0,0,0-7.83,0c-4.68,2.62-9.28,5.43-14.11,7.74C165.17,354.84,155.57,348.42,155.85,337.41Zm36.08-75c-3.43,7.41-6.56,14-9.54,20.68a7.76,7.76,0,0,1-6.5,4.92c-6.3.9-12.58,1.92-18.87,2.92-.82.13-2-.22-2.35.75s.69,1.48,1.24,2.06c3.18,3.36,6.11,7,9.68,9.92,6.22,5,8,10.74,5.77,18.43-1.53,5.26-1.82,10.86-2.77,17,4.3-2.39,8-4.21,11.46-6.4,8-5.07,15.9-5,23.94,0,3.52,2.19,7.26,4,11.59,6.38-1.36-8.11-2.48-15.37-3.81-22.59a8.68,8.68,0,0,1,2.53-8.5c4.72-4.64,9.28-9.44,13.86-14.22.54-.56,1.65-1,1.13-2.08-.37-.75-1.31-.56-2-.68-5.91-.95-11.8-2.16-17.75-2.74-4.47-.44-6.89-2.65-8.59-6.59C198.23,275.44,195.18,269.35,191.93,262.46Z"/></g></g></svg>